#define history_width 64
#define history_height 64
static char history_bits[] = {
  0x00, 0x00, 0x00, 0x00, 0x00, 0x00, 0x00, 0x00, 0x00, 0x00, 0x04, 0x08,
  0x00, 0x00, 0x00, 0x00, 0x00, 0x00, 0x06, 0x08, 0x20, 0x00, 0x00, 0x00,
  0x00, 0x00, 0x04, 0x00, 0x20, 0x00, 0x00, 0x00, 0x00, 0x00, 0x74, 0x88,
  0xf7, 0x38, 0xb4, 0x77, 0x00, 0x00, 0xcc, 0x4c, 0x24, 0x44, 0x2e, 0x21,
  0x00, 0x00, 0x84, 0x48, 0x20, 0x82, 0x04, 0x21, 0x80, 0x07, 0x84, 0x88,
  0x23, 0x82, 0x04, 0x12, 0xe0, 0x1f, 0x84, 0x08, 0x24, 0x82, 0x04, 0x12,
  0xf0, 0x3f, 0x84, 0x48, 0x24, 0x82, 0x04, 0x14, 0xb8, 0x3b, 0x84, 0xc8,
  0xa4, 0x44, 0x04, 0x08, 0xf8, 0x7f, 0xce, 0x5d, 0x43, 0x38, 0x0e, 0x08,
  0xfc, 0xff, 0x00, 0x00, 0x00, 0x00, 0x00, 0x04, 0xfc, 0xff, 0x00, 0x00,
  0x00, 0x00, 0x00, 0x04, 0xb8, 0xbf, 0x00, 0x00, 0x00, 0x00, 0x80, 0x02,
  0xfc, 0xff, 0x00, 0x00, 0x00, 0x00, 0x80, 0x01, 0xf8, 0x7f, 0x00, 0x00,
  0x00, 0x00, 0x00, 0x00, 0xf8, 0x7f, 0x00, 0x00, 0x00, 0x00, 0x00, 0x00,
  0xb0, 0xbb, 0x00, 0x00, 0x00, 0x00, 0x00, 0x00, 0xe0, 0x1f, 0x03, 0x00,
  0x00, 0x00, 0x00, 0x00, 0x80, 0x07, 0x04, 0x00, 0x00, 0x00, 0x00, 0x00,
  0x00, 0x00, 0x08, 0x00, 0x00, 0x00, 0x00, 0x00, 0x00, 0x00, 0x10, 0x38,
  0x00, 0x00, 0x00, 0x00, 0x00, 0x00, 0x60, 0xfe, 0x01, 0x00, 0x00, 0x00,
  0x00, 0x00, 0x80, 0xff, 0x03, 0x00, 0x00, 0x00, 0x00, 0x00, 0x80, 0xff,
  0x07, 0x00, 0x00, 0x00, 0x00, 0x00, 0x80, 0xbb, 0x03, 0x00, 0x00, 0x00,
  0x00, 0x00, 0xc0, 0xff, 0x0f, 0x00, 0x00, 0x00, 0x00, 0x00, 0xc0, 0xff,
  0x0f, 0x00, 0x00, 0x00, 0x00, 0x00, 0xc0, 0xff, 0x0f, 0x00, 0x00, 0x00,
  0x00, 0x00, 0x80, 0xff, 0x0b, 0x00, 0x00, 0x00, 0x00, 0x00, 0x80, 0xff,
  0x07, 0x00, 0x00, 0x00, 0x00, 0x00, 0x80, 0xff, 0x07, 0x00, 0x00, 0x00,
  0x00, 0x00, 0x60, 0xff, 0x1b, 0x00, 0x00, 0x00, 0x00, 0x00, 0x10, 0xba,
  0x61, 0x00, 0x00, 0x00, 0x00, 0x00, 0x08, 0x78, 0x80, 0x00, 0x00, 0x00,
  0x80, 0x07, 0x06, 0x00, 0x00, 0x03, 0x3c, 0x00, 0xe0, 0x1f, 0x01, 0x00,
  0x00, 0x04, 0xff, 0x00, 0xb0, 0xfb, 0x00, 0x00, 0x00, 0x98, 0xbb, 0x01,
  0xf8, 0x7f, 0x00, 0x00, 0x00, 0xe0, 0xff, 0x03, 0xf8, 0x7f, 0x00, 0x00,
  0x00, 0xc0, 0xff, 0x03, 0xfc, 0xff, 0x00, 0x00, 0x00, 0xe0, 0xff, 0x07,
  0xb8, 0xbb, 0x00, 0x00, 0x00, 0xa0, 0xbf, 0x03, 0xfc, 0xff, 0x00, 0x00,
  0x00, 0xe0, 0xff, 0x07, 0xfc, 0xff, 0x00, 0x00, 0x00, 0xe0, 0xff, 0x07,
  0xf8, 0x7f, 0x00, 0x00, 0x00, 0xc0, 0xff, 0x03, 0xb8, 0x3b, 0x00, 0x00,
  0x00, 0x80, 0xbb, 0x03, 0xf0, 0x3f, 0x00, 0x00, 0x00, 0x80, 0xff, 0x01,
  0xe0, 0x1f, 0x00, 0x00, 0x00, 0x00, 0xff, 0x00, 0x80, 0x07, 0x00, 0x00,
  0x00, 0x00, 0x3c, 0x00, 0x00, 0x00, 0x00, 0x00, 0x00, 0x00, 0x00, 0x00,
  0x00, 0x00, 0x00, 0x00, 0x00, 0x00, 0x00, 0x00, 0xe0, 0xe0, 0x00, 0x00,
  0x00, 0x80, 0x01, 0x00, 0xe0, 0xe0, 0x00, 0x00, 0x00, 0x80, 0x01, 0x00,
  0xe0, 0xf1, 0x00, 0x00, 0x00, 0x00, 0x00, 0x00, 0xe0, 0xf1, 0xe0, 0xc3,
  0x03, 0x8f, 0xc1, 0x07, 0xe0, 0xf1, 0xf0, 0xe7, 0x83, 0x9f, 0xe1, 0x07,
  0x60, 0xdb, 0x38, 0x6e, 0x80, 0x98, 0x71, 0x00, 0x60, 0xdb, 0x18, 0xec,
  0x01, 0x9f, 0x31, 0x00, 0x60, 0xdb, 0x18, 0xcc, 0x83, 0x9f, 0x31, 0x00,
  0x60, 0xde, 0x18, 0x0c, 0xc7, 0x98, 0x31, 0x00, 0x60, 0xce, 0x38, 0x2e,
  0xc6, 0x98, 0x71, 0x04, 0x60, 0xce, 0xf0, 0xe7, 0xc7, 0xbf, 0xe1, 0x07,
  0x60, 0xc0, 0xe0, 0xc3, 0x83, 0xb3, 0xc1, 0x03, };
